<?xml version="1.0" encoding="UTF-8" standalone="no"?>
<!-- Generator: Adobe Illustrator 24.1.1, SVG Export Plug-In . SVG Version: 6.00 Build 0)  -->

<svg
   version="1.1"
   id="Layer_1"
   x="0px"
   y="0px"
   viewBox="0 0 512 512"
   style="enable-background:new 0 0 512 512;"
   xml:space="preserve"
   sodipodi:docname="gh_pr.svg"
   inkscape:version="1.1 (c68e22c387, 2021-05-23)"
   xmlns:inkscape="http://www.inkscape.org/namespaces/inkscape"
   xmlns:sodipodi="http://sodipodi.sourceforge.net/DTD/sodipodi-0.dtd"
   xmlns="http://www.w3.org/2000/svg"
   xmlns:svg="http://www.w3.org/2000/svg"><defs
   id="defs29" /><sodipodi:namedview
   id="namedview27"
   pagecolor="#ffffff"
   bordercolor="#111111"
   borderopacity="1"
   inkscape:pageshadow="0"
   inkscape:pageopacity="0"
   inkscape:pagecheckerboard="1"
   showgrid="false"
   inkscape:snap-nodes="true"
   inkscape:zoom="1.5917969"
   inkscape:cx="252.23067"
   inkscape:cy="253.48712"
   inkscape:window-width="1482"
   inkscape:window-height="1033"
   inkscape:window-x="128"
   inkscape:window-y="0"
   inkscape:window-maximized="0"
   inkscape:current-layer="Layer_1" />
<style
   type="text/css"
   id="style20">
	.st0{fill:#444444;}
</style>
<g
   id="g24">
	<path
   class="st0"
   d="M119.5,34.1c-37.7,0-68.3,30.6-68.3,68.3c0,25.2,13.8,47,34.1,58.8v223.7c-20.3,11.8-34.1,33.6-34.1,58.8   c0,37.7,30.6,68.3,68.3,68.3c37.7,0,68.3-30.6,68.3-68.3c0-25.2-13.8-47-34.1-58.8V161.2c20.3-11.8,34.1-33.6,34.1-58.8   C187.7,64.7,157.2,34.1,119.5,34.1z M119.5,477.9c-18.8,0-34.1-15.3-34.1-34.1c0-18.8,15.3-34.1,34.1-34.1   c18.9,0,34.1,15.3,34.1,34.1C153.6,462.6,138.4,477.9,119.5,477.9z M119.5,136.5c-18.8,0-34.1-15.2-34.1-34.1   c0-18.9,15.3-34.1,34.1-34.1c18.9,0,34.1,15.3,34.1,34.1C153.6,121.3,138.4,136.5,119.5,136.5z M426.7,384.9V170.7   C426.7,68,324.3,68.3,324.3,68.3h-34.1V0L187.7,102.4l102.4,102.4v-68.3c0,0,14.2,0,34.1,0c30.1,0,34.1,34.1,34.1,34.1v214.3   c-20.3,11.8-34.1,33.6-34.1,58.8c0,37.7,30.6,68.3,68.3,68.3c37.7,0,68.3-30.6,68.3-68.3C460.8,418.5,447,396.8,426.7,384.9   L426.7,384.9z M392.5,477.9c-18.8,0-34.1-15.3-34.1-34.1c0-18.8,15.3-34.1,34.1-34.1c18.9,0,34.1,15.3,34.1,34.1   C426.7,462.6,411.4,477.9,392.5,477.9z"
   id="path22" />
</g>
<path
   style="fill:#a0a0a0;stroke:none;stroke-width:0.628221"
   d="m 109.71586,510.99544 c -14.121432,-2.06267 -27.610586,-8.94 -38.090942,-19.42036 -8.831236,-8.83123 -14.84338,-19.24427 -18.056581,-31.27401 -1.440547,-5.39318 -1.628643,-7.29454 -1.628643,-16.46303 0,-9.22345 0.183862,-11.05788 1.668588,-16.64786 4.237577,-15.95441 15.246834,-31.31172 28.531922,-39.80046 l 3.297833,-2.1072 -0.0055,-112.22899 -0.0055,-112.22899 -3.920885,-2.50416 C 76.546724,155.15293 66.96338,145.69206 63.531902,140.57584 46.458853,115.12046 47.801333,83.432608 66.967691,59.477622 80.941174,42.012928 104.6233,32.229224 126.55747,34.859536 c 35.05174,4.203352 60.65235,32.657411 60.65235,67.412694 0,22.39341 -10.51924,42.50319 -29.05522,55.54533 l -4.86871,3.42568 0.006,111.92807 0.006,111.92808 3.83244,2.46941 c 8.48049,5.46435 17.70407,15.66716 22.47241,24.85819 5.88804,11.3493 7.89679,20.5138 7.43571,33.92393 -0.45186,13.14197 -3.17031,22.19507 -10.01215,33.34294 -3.74518,6.10228 -13.85913,16.62213 -19.51624,20.29949 -14.51253,9.43375 -31.60013,13.36736 -47.79318,11.00209 z m 20.68235,-34.54869 c 9.69212,-2.99359 18.12814,-11.43583 21.64909,-21.66505 6.59068,-19.14757 -5.52311,-40.34206 -25.4608,-44.54662 -5.49253,-1.15829 -8.90941,-1.16946 -14.20739,-0.0465 -12.33748,2.61514 -22.442202,12.10021 -25.991909,24.39802 -1.492514,5.17074 -1.368646,14.09251 0.267997,19.30294 3.966462,12.62766 14.150162,21.53112 27.270572,23.84226 4.2923,0.75608 11.74678,0.17452 16.47244,-1.28508 z M 127.02675,135.9489 c 5.9486,-1.23141 12.21277,-4.69435 16.77028,-9.2709 13.38174,-13.43765 13.41102,-35.093756 0.0656,-48.475646 C 130.15457,64.456937 107.91927,64.759101 94.606143,78.871717 88.272071,85.586168 85.298432,93.103011 85.298432,102.4 c 0,9.69425 3.066824,17.17213 9.819062,23.94197 4.710237,4.72252 9.797246,7.76043 15.621826,9.32921 4.00103,1.07762 11.78231,1.2103 16.28743,0.27772 z"
   id="path291" /><path
   style="fill:#a0a0a0;stroke:none;stroke-width:0.628221"
   d="m 381.4776,510.74516 c -9.62908,-1.74546 -18.66004,-5.3569 -27.16104,-10.86157 -5.776,-3.74015 -16.18825,-14.78246 -19.94209,-21.14879 -6.63166,-11.24699 -9.56217,-21.85698 -9.57603,-34.67031 -0.0126,-11.63105 2.14517,-20.8861 7.23443,-31.02996 4.52219,-9.01358 14.41748,-20.04049 22.87247,-25.48817 l 3.79778,-2.44697 0.006,-107.48234 c 0.006,-105.80478 -0.0143,-107.55988 -1.2641,-112.45153 -3.51653,-13.7637 -11.4869,-23.39602 -22.6367,-27.35681 -3.84316,-1.36521 -5.09804,-1.45036 -24.62377,-1.67072 l -20.57423,-0.2322 v 33.81742 33.81742 l -50.57195,-50.56886 -50.57178,-50.56886 50.41473,-50.417782 50.41473,-50.4177897 0.16251,33.6114227 0.16251,33.611423 20.56878,0.0038 c 28.80947,0.005 40.68956,1.967676 58.80031,9.713306 34.58121,14.789739 53.53181,41.8735 56.93836,81.37501 0.38148,4.42354 0.62512,49.50108 0.62841,116.26703 l 0.006,109.04249 4.5546,3.08149 c 2.50503,1.69483 6.82349,5.35714 9.59658,8.13847 28.41089,28.49537 25.65519,75.0455 -5.93904,100.32401 -14.82319,11.86002 -35.36564,17.25978 -53.29651,14.00946 z m 20.76186,-34.02556 c 11.20334,-3.28923 20.09605,-12.27594 23.36932,-23.61632 0.62673,-2.17134 1.04293,-5.8688 1.04293,-9.26524 0,-9.81374 -3.20726,-17.56359 -10.14128,-24.50491 -13.35741,-13.37143 -34.56861,-13.25404 -48.12176,0.26632 -17.65121,17.60852 -11.50716,47.13638 11.71235,56.28865 6.55916,2.58538 15.07516,2.90523 22.13844,0.8315 z"
   id="path330" /><path
   style="fill:#a0a0a0;stroke:none;stroke-width:0.628221"
   d="m 382.5865,510.62572 c -8.3594,-1.38837 -18.68258,-5.3222 -26.26211,-10.00764 -5.44205,-3.36412 -14.78986,-12.44206 -19.25434,-18.69846 -3.56531,-4.99634 -7.98932,-14.25547 -9.79078,-20.4914 -2.06499,-7.14818 -2.43922,-23.23694 -0.73237,-31.48556 1.6492,-7.96996 4.84988,-15.65819 9.32343,-22.39543 4.25278,-6.40475 14.11912,-16.47005 19.23301,-19.62085 l 3.5687,-2.19877 -0.13602,-109.93865 -0.13602,-109.93865 -1.69316,-4.56334 c -2.5636,-6.90935 -4.82369,-10.68625 -9.14898,-15.28911 -4.76403,-5.06977 -10.59689,-8.35458 -16.49269,-9.28796 -2.24191,-0.35493 -12.48652,-0.7559 -22.76578,-0.89104 l -18.68957,-0.24571 v 33.66962 33.66962 l -50.25767,-50.25472 -50.25767,-50.25472 49.7865,-49.790329 49.7865,-49.7903234 0.35514,32.8268874 c 0.19533,18.054789 0.40736,32.856553 0.47117,32.892814 0.0638,0.03625 8.95038,0.259424 19.74793,0.495924 28.93304,0.633724 35.85771,1.482488 49.76692,6.099981 26.3528,8.748434 45.65574,24.579794 56.21967,46.108726 5.39377,10.99232 8.56646,22.24971 10.00345,35.49447 0.40206,3.7058 0.80701,48.23735 1.06828,117.4773 l 0.42076,111.50921 3.92881,2.68751 c 14.21225,9.72191 24.46989,25.27604 28.01955,42.48732 1.68352,8.16288 1.41502,21.2637 -0.58939,28.75843 -7.03245,26.29513 -27.37326,45.45989 -53.51237,50.41839 -4.75434,0.90189 -17.87665,1.22811 -21.9809,0.54646 z m 17.56367,-33.1114 c 2.2313,-0.46732 4.15779,-1.1523 4.28107,-1.52217 0.1233,-0.36987 0.56627,-0.54121 0.98439,-0.38076 1.08552,0.41655 7.77566,-3.73715 11.01667,-6.83991 5.26505,-5.04047 9.93441,-14.03771 10.16861,-19.59357 0.60308,-14.30698 -1.50139,-21.04237 -9.10731,-29.14807 -6.65128,-7.08833 -15.09262,-10.74395 -24.80928,-10.74395 -3.13514,0 -5.7011,0.21202 -5.70212,0.47117 -10e-4,0.25914 -0.9833,0.49207 -2.18286,0.51763 -1.209,0.0258 -4.49918,1.19517 -7.38253,2.62392 -4.05283,2.00826 -6.17205,3.59714 -9.59628,7.19479 -4.22295,4.43681 -7.67812,10.12535 -8.00766,13.18367 -0.086,0.79847 -0.41011,1.63554 -0.72016,1.86016 -0.95457,0.69154 -1.24024,12.6354 -0.3904,16.32246 1.89989,8.24269 7.45128,16.49068 14.04495,20.86731 8.22382,5.45866 17.61726,7.23682 27.40291,5.18732 z"
   id="path369" /><path
   style="fill:#a0a0a0;stroke:none;stroke-width:0.628221"
   d="m 378.41708,509.79667 c -13.10409,-2.96108 -23.66372,-8.80233 -32.97159,-18.23886 -9.12753,-9.25369 -14.56261,-18.15038 -17.8871,-29.27947 -1.41482,-4.73629 -1.70598,-7.10026 -1.96164,-15.92742 -0.35089,-12.11477 0.70505,-18.78274 4.41573,-27.88434 4.32117,-10.599 13.59488,-22.22381 23.42896,-29.36874 l 5.29657,-3.84821 -0.16901,-109.69966 -0.169,-109.69966 -1.70291,-4.59202 c -2.54166,-6.85378 -5.29401,-11.27594 -9.88057,-15.87497 -4.89835,-4.91165 -10.51129,-7.90095 -16.39685,-8.73251 -2.23241,-0.31542 -12.32789,-0.68824 -22.43439,-0.82849 l -18.37546,-0.255 v 33.67254 33.67253 l -50.25767,-50.25472 -50.25767,-50.25472 49.7865,-49.79056 49.7865,-49.7905545 0.38034,32.8271185 c 0.20917,18.054916 0.4212,32.856784 0.47116,32.893045 0.05,0.03625 8.92519,0.259424 19.72274,0.495924 28.93304,0.633724 35.85771,1.482488 49.76692,6.099981 38.62174,12.821397 61.26425,40.179596 65.92553,79.655626 0.93224,7.89507 1.58089,84.19382 1.6455,193.55494 l 0.022,37.37914 4.21498,2.82699 c 9.64523,6.46909 20.00438,19.27392 24.09402,29.78237 3.51716,9.03745 4.37801,13.21492 4.73714,22.98818 0.28252,7.6887 0.13037,10.09777 -0.97571,15.44848 -5.63351,27.25236 -26.8838,48.1419 -54.25523,53.33418 -6.9319,1.31495 -19.46753,1.16494 -25.99987,-0.31114 z m 23.80132,-32.73795 c 1.29571,-0.4202 2.35583,-0.9904 2.35583,-1.26711 0,-0.2767 0.36036,-0.36481 0.80081,-0.1958 1.17887,0.45237 7.85121,-3.74688 11.34119,-7.13761 5.47136,-5.31576 9.51334,-13.7335 9.8612,-20.53673 0.33452,-6.54251 -0.051,-10.92745 -1.32557,-15.0773 -1.25043,-4.07122 -4.52278,-9.73742 -5.62356,-9.73742 -0.37353,0 -0.52246,-0.25351 -0.33097,-0.56335 0.57575,-0.93158 -7.03274,-7.50886 -11.0067,-9.5149 -2.03925,-1.02941 -5.32391,-2.29262 -7.29926,-2.80713 -3.69539,-0.96253 -14.00512,-1.30421 -14.01014,-0.46431 -10e-4,0.25914 -1.04492,0.5255 -2.31861,0.5919 -7.16168,0.37342 -18.96193,9.82033 -23.12963,18.51686 -1.21326,2.53164 -2.07702,4.9389 -1.91947,5.34947 0.15755,0.41056 -0.051,0.85898 -0.46354,0.99648 -0.53094,0.17697 -0.74426,2.61994 -0.7304,8.36451 0.0231,9.56681 1.021,13.02487 5.76777,19.98696 4.65012,6.82035 11.86014,11.78063 20.21888,13.91001 4.05328,1.03256 14.06874,0.79948 17.81217,-0.41453 z"
   id="path408" /><path
   style="fill:#ffffff;stroke:none;stroke-width:0.628221"
   d="m 378.41708,509.79667 c -13.10409,-2.96108 -23.66372,-8.80233 -32.97159,-18.23886 -9.12753,-9.25369 -14.56261,-18.15038 -17.8871,-29.27947 -1.41482,-4.73629 -1.70598,-7.10026 -1.96164,-15.92742 -0.25258,-8.72055 -0.10178,-11.32465 0.95015,-16.40826 2.62111,-12.66686 8.66422,-23.56063 18.63623,-33.5951 3.12302,-3.14259 7.45268,-6.90405 9.62147,-8.3588 l 3.94325,-2.64499 -0.17393,-109.74673 -0.17392,-109.74673 -2.03592,-5.28719 c -5.23721,-13.60075 -15,-22.48489 -26.29281,-23.92645 -2.38631,-0.30461 -12.46636,-0.65789 -22.4001,-0.78506 l -18.06135,-0.23122 v 33.64601 33.64599 l -50.25767,-50.25472 -50.25767,-50.25472 49.7865,-49.79065 49.7865,-49.7906459 0.35224,32.6559219 c 0.19372,17.960758 0.47642,32.765503 0.62822,32.899433 0.15179,0.133931 9.18102,0.434849 20.06494,0.66871 31.16564,0.669646 38.65429,1.769767 54.98872,8.078135 17.76425,6.860555 32.52257,17.627457 42.76271,31.197426 4.52106,5.99119 10.57488,17.80573 13.06105,25.48976 2.12214,6.55891 3.91848,15.41755 4.71341,23.24417 0.65108,6.41037 1.30026,94.01343 1.34075,180.92761 l 0.0222,47.74479 4.21498,2.82699 c 9.01878,6.04893 18.79271,17.73179 23.39715,27.96682 3.61716,8.04043 5.08311,14.72038 5.44332,24.80373 0.27556,7.71374 0.12067,10.09994 -1.01109,15.57638 -5.61944,27.19198 -26.83795,48.01025 -54.22916,53.20628 -6.93189,1.31495 -19.46753,1.16494 -25.99987,-0.31114 z m 21.4455,-32.35977 c 2.41865,-0.5123 4.49236,-1.21591 4.60825,-1.56356 0.1159,-0.34765 0.47268,-0.47018 0.79287,-0.2723 1.0607,0.65555 7.73215,-3.6763 11.61323,-7.54062 2.738,-2.72616 4.60852,-5.39497 6.59632,-9.41146 2.77276,-5.60252 2.7747,-5.61132 2.92435,-13.19264 0.20301,-10.28454 -1.71053,-17.37115 -5.79291,-21.45353 -0.79647,-0.79646 -1.32447,-1.57176 -1.17334,-1.72289 0.56748,-0.56749 -7.51145,-7.26783 -11.01435,-9.13486 -9.65865,-5.148 -21.92762,-5.10163 -31.78287,0.12012 -6.00243,3.18036 -14.61082,12.47157 -15.52089,16.75202 -0.1102,0.51828 -0.40538,1.09604 -0.65597,1.2839 -0.25058,0.18787 -0.53328,1.03597 -0.62822,1.88466 -0.0949,0.8487 -0.45531,1.74495 -0.80083,1.99167 -0.36846,0.2631 -0.6027,3.76983 -0.56648,8.48098 0.0702,9.13857 1.10309,13.01012 5.06448,18.98362 8.03603,12.11779 22.04544,17.82192 36.33636,14.79489 z"
   id="path447" /><path
   style="font-variation-settings:normal;opacity:1;vector-effect:none;fill:#ffffff;fill-opacity:1;stroke:none;stroke-width:0.394662;stroke-linecap:butt;stroke-linejoin:miter;stroke-miterlimit:4;stroke-dasharray:none;stroke-dashoffset:0;stroke-opacity:1;-inkscape-stroke:none;stop-color:#000000;stop-opacity:1"
   d="m 105.22699,509.84363 c -18.357492,-4.30472 -34.842363,-16.57125 -44.380627,-33.024 -2.652581,-4.57549 -5.751295,-12.02001 -6.864152,-16.4908 -0.451532,-1.81398 -1.011477,-3.29816 -1.244322,-3.29816 -0.232844,0 -0.369241,-5.72466 -0.303102,-12.72147 0.105154,-11.12425 0.296609,-13.31303 1.524891,-17.43313 4.505795,-15.11402 15.35909,-30.39683 27.217971,-38.32634 l 4.220593,-2.82212 0.0199,-112.55345 0.0199,-112.55344 -4.240491,-3.02179 C 75.499681,153.53862 66.823477,144.69738 63.225031,139.28455 59.416736,133.55605 56.199904,126.43686 54.22666,119.3702 52.076058,111.66837 51.537169,98.581334 53.041234,90.581915 58.014747,64.130136 77.358027,43.656701 103.97055,36.67699 c 4.86123,-1.274962 7.06334,-1.476521 15.70552,-1.437525 8.78153,0.03962 10.83237,0.254222 16.23148,1.698449 25.23172,6.749318 43.97994,26.26018 49.48909,51.502191 1.39869,6.408594 1.66723,18.770325 0.54551,25.112195 -1.69263,9.56963 -5.63764,19.2442 -10.97407,26.91234 -3.64767,5.24148 -11.37165,12.94197 -17.06714,17.01521 l -4.61505,3.30056 V 273.0237 385.26699 l 5.20924,3.78477 c 12.25369,8.90289 21.5219,21.86933 26.02426,36.40853 1.61586,5.21799 1.7019,6.14176 1.68237,18.06364 -0.0239,14.60702 -0.79335,18.51312 -5.62354,28.54898 -3.74404,7.77911 -7.47315,12.91912 -14.39587,19.8425 -8.42298,8.4238 -17.1535,13.42845 -29.85842,17.11594 -7.45175,2.1628 -23.54499,2.58317 -31.09694,0.81228 z m 25.59382,-33.31255 c 10.697,-3.35656 19.97352,-13.76236 22.48112,-25.21787 0.85553,-3.90838 0.59724,-15.46673 -0.36102,-16.15521 -0.32854,-0.23604 -0.67636,-1.13591 -0.77292,-1.99972 -0.0966,-0.8638 -0.4517,-1.66537 -0.78919,-1.78126 -0.33749,-0.1159 -0.46612,-0.44938 -0.28584,-0.74108 0.35802,-0.57929 -2.58402,-5.83494 -5.14825,-9.19682 -3.10488,-4.07072 -13.66453,-10.94964 -15.27787,-9.95255 -0.2848,0.17602 -0.62836,-0.0116 -0.76346,-0.41694 -0.13511,-0.40533 -1.28923,-0.76046 -2.5647,-0.78919 -1.27547,-0.0287 -2.31986,-0.26424 -2.32088,-0.52338 -0.003,-0.83993 -10.31385,-0.4982 -14.00917,0.46431 -11.06791,2.88282 -20.726214,11.84104 -24.279949,22.52002 -1.335113,4.01202 -1.380991,4.36333 -1.408088,10.78254 -0.02505,5.93573 0.120427,7.10184 1.404812,11.2602 3.27587,10.60603 13.184802,19.83905 24.332515,22.67271 4.89368,1.24394 14.24416,0.80593 19.76289,-0.92576 z m 0.0226,-341.42189 c 5.67115,-2.00147 9.74074,-4.70089 13.96402,-9.26254 6.16102,-6.65464 9.04385,-14.12851 9.04385,-23.44665 0,-9.215043 -2.8386,-16.67331 -8.85244,-23.259346 -3.54124,-3.878177 -9.54912,-8.147978 -10.57371,-7.514743 -0.33776,0.208741 -0.6141,0.103527 -0.6141,-0.233809 0,-0.973165 -4.94408,-2.57522 -9.73742,-3.155264 -4.4555,-0.539162 -11.62089,-0.246911 -11.62352,0.474083 -8.2e-4,0.216356 -0.85434,0.423751 -1.89678,0.46088 -1.04244,0.03713 -3.96507,1.090423 -6.49475,2.340654 -7.884229,3.896599 -14.549548,11.504753 -17.428368,19.89368 -2.087349,6.082573 -2.014427,16.226975 0.160572,22.337405 2.272556,6.3845 5.425668,10.69264 11.532191,15.75658 6.341705,5.25898 11.772495,7.06242 21.353105,7.09088 5.71711,0.017 7.64553,-0.2389 11.16735,-1.48181 z"
   id="path597" /></svg>
